<?xml version="1.0" encoding="UTF-8" standalone="no"?>
<!DOCTYPE svg PUBLIC "-//W3C//DTD SVG 1.1//EN" "http://www.w3.org/Graphics/SVG/1.1/DTD/svg11.dtd">
<svg xmlns="http://www.w3.org/2000/svg" version="1.1" viewBox="0.00 0.00 500.00 500.00">
<g stroke-width="2.00" fill="none" stroke-linecap="butt">
<path stroke="#8e5f0d" vector-effect="non-scaling-stroke" d="
  M 356.83 263.41
  Q 336.09 266.52 315.98 268.01"
/>
<path stroke="#8e5f0d" vector-effect="non-scaling-stroke" d="
  M 190.53 268.78
  L 152.17 264.68"
/>
</g>
<path fill="#ffa100" d="
  M 356.83 263.41
  Q 336.09 266.52 315.98 268.01
  C 275.10 271.14 233.74 270.95 190.53 268.78
  L 152.17 264.68
  Q 132.11 261.92 113.38 257.39
  Q 111.99 257.05 111.83 255.63
  C 110.44 243.27 114.76 227.15 127.51 221.88
  A 1.21 1.20 -11.5 0 0 128.26 220.75
  C 127.45 173.59 155.13 134.41 198.73 118.02
  A 1.21 1.20 -23.4 0 1 200.23 118.61
  L 218.84 155.60
  Q 221.15 160.19 221.05 155.06
  Q 220.64 133.25 220.76 109.40
  C 220.84 95.36 223.50 89.96 237.97 89.99
  Q 247.71 90.01 257.42 90.00
  C 270.69 89.97 275.94 92.74 275.97 106.36
  Q 276.04 131.53 275.99 156.73
  Q 275.99 157.02 276.15 157.27
  Q 276.28 157.45 276.26 157.69
  A 0.34 0.33 -28.1 0 0 276.89 157.88
  L 297.72 118.75
  A 1.63 1.63 0.0 0 1 299.75 118.00
  C 343.17 135.07 370.84 173.44 370.01 221.08
  A 0.86 0.85 12.4 0 0 370.53 221.88
  C 383.40 227.27 388.48 243.01 387.87 255.71
  A 1.65 1.63 -4.6 0 1 386.56 257.23
  L 356.83 263.41
  Z"
/>
<path fill="#1d1c1a" d="
  M 356.83 263.41
  L 365.85 271.39
  A 3.08 3.08 0.0 0 1 366.64 274.89
  L 358.11 294.95
  A 2.37 2.36 -73.7 0 1 355.54 296.36
  L 332.68 292.57
  A 3.62 3.61 -63.1 0 0 329.50 293.61
  C 326.98 296.20 321.26 301.82 322.57 305.94
  Q 325.97 316.65 329.41 326.94
  A 3.60 3.59 64.0 0 1 328.00 331.06
  L 311.18 342.39
  A 2.90 2.90 0.0 0 1 307.63 342.15
  L 290.30 326.75
  A 3.32 3.31 57.1 0 0 287.09 326.06
  L 275.38 329.79
  A 1.94 1.93 88.7 0 0 274.09 331.15
  Q 270.96 343.12 267.65 355.18
  Q 267.20 356.81 264.76 357.06
  Q 254.15 358.13 243.60 356.74
  A 1.04 1.02 78.1 0 1 242.83 356.23
  Q 241.81 354.53 241.48 353.26
  Q 239.13 344.27 236.70 335.31
  C 235.86 332.20 235.58 331.02 232.20 330.05
  Q 227.04 328.57 222.06 327.09
  A 4.22 4.22 0.0 0 0 218.01 328.02
  L 201.89 342.84
  Q 199.38 345.14 196.52 343.29
  L 180.91 333.17
  A 3.15 3.13 -65.2 0 1 179.62 329.62
  L 186.52 307.20
  A 3.04 3.01 33.4 0 0 185.92 304.34
  L 177.59 294.63
  A 3.40 3.38 64.9 0 0 174.45 293.49
  L 151.79 297.38
  A 3.09 3.09 0.0 0 1 148.46 295.62
  Q 144.74 287.44 140.87 278.64
  C 139.24 274.92 141.00 274.26 143.45 272.22
  Q 147.58 268.78 152.17 264.68
  L 190.53 268.78
  C 190.48 269.26 190.46 269.88 190.70 270.33
  C 208.52 303.64 248.61 317.92 283.03 301.28
  Q 304.75 290.78 315.98 268.01
  Q 336.09 266.52 356.83 263.41
  Z"
/>
<path fill="#535bff" d="
  M 205.74 402.78
  C 185.07 403.12 174.40 380.50 185.09 364.00
  C 196.25 346.76 225.81 351.68 230.09 372.52
  Q 230.19 373.00 229.70 373.00
  L 217.56 373.00
  Q 217.01 373.00 216.72 372.54
  Q 212.26 365.46 205.24 366.06
  C 193.73 367.06 190.85 383.16 200.00 388.65
  C 206.01 392.27 213.44 390.02 216.68 383.61
  A 0.66 0.65 13.0 0 1 217.27 383.25
  L 229.76 383.25
  A 0.76 0.75 8.3 0 1 230.49 384.22
  Q 225.18 402.46 205.74 402.78
  Z"
/>
<path fill="#535bff" d="
  M 103.24 366.96
  L 89.76 366.67
  A 0.52 0.52 0.0 0 1 89.25 366.15
  L 89.25 355.02
  A 0.52 0.52 0.0 0 1 89.77 354.50
  L 131.23 354.50
  A 0.52 0.52 0.0 0 1 131.75 355.02
  L 131.75 366.15
  A 0.52 0.52 0.0 0 1 131.24 366.67
  L 117.72 367.04
  A 0.52 0.52 0.0 0 0 117.22 367.55
  L 117.00 401.23
  A 0.52 0.52 0.0 0 1 116.48 401.75
  L 104.27 401.75
  A 0.52 0.52 0.0 0 1 103.75 401.23
  L 103.75 367.48
  A 0.52 0.52 0.0 0 0 103.24 366.96
  Z"
/>
<path fill="#535bff" d="
  M 174.97 391.19
  C 166.60 411.13 131.63 404.44 136.32 379.96
  C 138.93 366.38 154.99 361.96 166.05 367.59
  Q 175.40 372.35 176.15 385.23
  Q 176.25 387.02 174.46 387.03
  L 149.54 387.09
  A 0.88 0.88 0.0 0 0 148.76 388.37
  C 151.40 393.60 156.70 394.42 161.68 391.62
  C 165.01 389.74 170.84 390.39 174.58 390.57
  Q 175.22 390.60 174.97 391.19
  Z
  M 149.05 380.25
  L 163.29 380.25
  A 0.12 0.12 0.0 0 0 163.41 380.13
  L 163.41 380.09
  A 7.15 5.26 -0.0 0 0 156.26 374.83
  L 156.08 374.83
  A 7.15 5.26 0.0 0 0 148.93 380.09
  L 148.93 380.13
  A 0.12 0.12 0.0 0 0 149.05 380.25
  Z"
/>
<path fill="#535bff" d="
  M 276.9299 384.1130
  A 20.92 19.02 0.2 0 1 255.9436 403.0599
  A 20.92 19.02 0.2 0 1 235.0901 383.9670
  A 20.92 19.02 0.2 0 1 256.0764 365.0201
  A 20.92 19.02 0.2 0 1 276.9299 384.1130
  Z
  M 264.28 384.01
  A 8.26 8.26 0.0 0 0 256.02 375.75
  A 8.26 8.26 0.0 0 0 247.76 384.01
  A 8.26 8.26 0.0 0 0 256.02 392.27
  A 8.26 8.26 0.0 0 0 264.28 384.01
  Z"
/>
<path fill="#535bff" d="
  M 294.96 369.26
  C 302.40 363.13 315.32 363.82 319.32 373.13
  C 322.05 379.48 320.77 393.17 320.74 401.25
  Q 320.74 401.75 320.24 401.75
  L 308.76 401.75
  Q 308.23 401.75 308.21 401.22
  Q 307.89 392.31 307.96 383.42
  C 308.05 372.82 296.58 373.91 296.54 382.26
  Q 296.49 391.73 296.50 401.24
  Q 296.50 401.75 295.99 401.75
  L 284.38 401.75
  Q 283.76 401.75 283.76 401.13
  L 283.73 366.76
  Q 283.73 366.25 284.24 366.25
  L 292.20 366.25
  A 0.88 0.85 76.5 0 1 292.97 366.74
  L 294.08 369.07
  A 0.57 0.57 0.0 0 0 294.96 369.26
  Z"
/>
<path fill="#535bff" d="
  M 340.82 387.02
  A 0.89 0.89 0.0 0 0 340.02 388.31
  C 343.19 394.77 349.16 394.00 354.43 390.74
  Q 354.83 390.50 355.29 390.50
  L 365.77 390.50
  A 0.60 0.59 -75.8 0 1 366.29 391.38
  C 360.71 401.65 350.19 404.99 339.37 401.46
  Q 328.45 397.90 327.30 385.59
  C 324.84 359.29 368.19 357.08 367.18 386.46
  Q 367.17 387.02 366.60 387.02
  L 340.82 387.02
  Z
  M 340.28 380.26
  L 354.54 380.24
  A 0.12 0.12 0.0 0 0 354.66 380.12
  L 354.66 380.08
  A 7.15 5.26 -0.1 0 0 347.51 374.83
  L 347.31 374.83
  A 7.15 5.26 -0.1 0 0 340.16 380.10
  L 340.16 380.14
  A 0.12 0.12 0.0 0 0 340.28 380.26
  Z"
/>
<path fill="#535bff" d="
  M 391.09 393.07
  L 385.84 401.60
  A 0.32 0.32 0.0 0 1 385.57 401.75
  L 372.07 401.75
  A 0.32 0.32 0.0 0 1 371.80 401.25
  L 383.21 383.86
  A 0.32 0.32 0.0 0 0 383.21 383.50
  L 372.18 366.75
  A 0.32 0.32 0.0 0 1 372.44 366.25
  L 385.71 366.25
  A 0.32 0.32 0.0 0 1 385.98 366.40
  L 391.06 374.59
  A 0.32 0.32 0.0 0 0 391.61 374.59
  L 396.52 366.41
  A 0.32 0.32 0.0 0 1 396.79 366.25
  L 410.31 366.25
  A 0.32 0.32 0.0 0 1 410.58 366.75
  L 399.41 383.46
  A 0.32 0.32 0.0 0 0 399.41 383.82
  L 410.97 401.25
  A 0.32 0.32 0.0 0 1 410.70 401.75
  L 397.06 401.75
  A 0.32 0.32 0.0 0 1 396.79 401.60
  L 391.64 393.07
  A 0.32 0.32 0.0 0 0 391.09 393.07
  Z"
/>
<path fill="#1d1c1a" d="
  M 180.00 433.90
  C 181.30 429.78 174.96 429.06 175.46 424.04
  C 175.82 420.33 179.92 421.04 181.86 423.90
  A 0.91 0.91 0.0 0 1 180.75 425.25
  Q 179.92 424.89 179.88 423.97
  A 1.38 1.38 0.0 0 0 177.15 423.73
  C 176.30 427.52 180.23 428.00 181.47 430.91
  C 183.93 436.71 175.09 438.05 175.28 432.49
  Q 175.32 431.52 176.40 431.79
  Q 177.00 431.95 177.00 432.57
  L 177.00 433.43
  A 1.54 1.53 53.8 0 0 180.00 433.90
  Z"
/>
<path fill="#1d1c1a" d="
  M 193.04 423.93
  Q 193.45 425.17 193.17 426.45
  A 1.21 1.21 0.0 0 0 194.24 427.92
  L 196.72 428.14
  A 0.62 0.62 0.0 0 1 196.68 429.37
  L 193.78 429.45
  A 0.52 0.52 0.0 0 0 193.28 429.95
  L 193.13 433.89
  Q 193.11 434.43 193.65 434.45
  L 197.46 434.60
  A 0.67 0.66 -44.3 0 1 197.44 435.93
  L 192.18 436.02
  Q 191.50 436.04 191.50 435.36
  L 191.50 422.10
  A 0.64 0.64 0.0 0 1 192.16 421.46
  L 197.44 421.61
  A 0.62 0.62 0.0 0 1 197.46 422.85
  L 193.63 423.07
  A 0.66 0.65 -10.8 0 0 193.04 423.93
  Z"
/>
<path fill="#1d1c1a" d="
  M 210.76 434.62
  A 1.27 1.27 0.0 0 0 211.91 433.78
  Q 212.85 431.17 210.83 429.30
  Q 210.37 428.88 210.87 428.51
  Q 211.94 427.71 213.21 428.26
  Q 213.70 428.47 213.72 429.00
  C 213.86 432.10 214.12 436.90 209.49 435.98
  C 206.28 435.34 207.23 428.31 207.24 425.88
  C 207.28 418.80 214.90 421.18 213.59 425.99
  A 0.69 0.69 0.0 0 1 212.23 425.78
  Q 212.27 424.49 211.65 423.40
  A 1.51 1.50 31.7 0 0 208.84 424.06
  Q 208.60 428.35 208.75 432.57
  Q 208.83 434.67 210.76 434.62
  Z"
/>
<path fill="#1d1c1a" d="
  M 226.69 434.64
  Q 228.36 434.31 228.17 432.59
  C 227.81 429.47 227.98 426.15 228.02 423.00
  Q 228.03 422.14 228.49 421.65
  A 0.72 0.72 0.0 0 1 229.74 422.13
  C 229.76 424.92 230.42 432.41 229.18 434.66
  C 228.15 436.51 224.61 436.62 223.62 434.45
  C 222.59 432.17 223.23 424.80 223.28 422.11
  A 0.69 0.69 0.0 0 1 224.33 421.53
  C 224.68 421.74 224.97 422.22 224.97 422.66
  Q 225.03 427.94 224.99 433.23
  A 1.43 1.43 0.0 0 0 226.69 434.64
  Z"
/>
<path fill="#1d1c1a" d="
  M 241.13 430.65
  L 241.30 435.47
  Q 241.32 436.00 240.78 436.00
  L 240.13 436.00
  Q 239.50 436.00 239.50 435.38
  L 239.50 422.25
  Q 239.50 421.78 239.96 421.66
  C 244.75 420.31 247.84 424.06 245.23 428.38
  Q 244.96 428.82 245.16 429.28
  Q 246.35 432.02 246.08 435.06
  Q 246.02 435.71 245.68 435.92
  Q 245.39 436.10 245.04 436.00
  Q 244.55 435.86 244.54 435.36
  C 244.51 433.55 245.11 428.84 241.67 429.89
  A 0.77 0.76 80.7 0 0 241.13 430.65
  Z
  M 241.24 423.64
  L 241.26 427.74
  A 0.69 0.69 0.0 0 0 241.95 428.42
  L 242.47 428.42
  A 2.31 2.03 89.8 0 0 244.49 426.10
  L 244.49 425.24
  A 2.31 2.03 89.8 0 0 242.45 422.94
  L 241.93 422.94
  A 0.69 0.69 0.0 0 0 241.24 423.64
  Z"
/>
<path fill="#1d1c1a" d="
  M 260.71 432.96
  L 258.11 433.11
  A 0.68 0.67 84.5 0 0 257.48 433.88
  Q 257.66 435.10 256.76 435.87
  A 0.61 0.60 75.2 0 1 255.77 435.29
  L 258.23 422.50
  A 1.39 1.39 0.0 0 1 260.95 422.50
  L 263.44 435.35
  A 0.55 0.55 0.0 0 1 262.90 436.00
  L 262.46 436.00
  Q 261.90 436.00 261.80 435.45
  L 261.43 433.52
  Q 261.32 432.92 260.71 432.96
  Z
  M 258.51 431.80
  L 260.35 431.80
  A 0.25 0.25 0.0 0 0 260.60 431.55
  L 260.60 431.40
  A 6.84 1.12 89.9 0 0 259.46 424.56
  L 259.36 424.56
  A 6.84 1.12 89.9 0 0 258.26 431.40
  L 258.26 431.55
  A 0.25 0.25 0.0 0 0 258.51 431.80
  Z"
/>
<path fill="#1d1c1a" d="
  M 275.00 425.72
  A 0.34 0.34 0.0 0 0 274.34 425.82
  L 274.56 435.39
  Q 274.58 436.01 273.96 436.00
  Q 273.73 435.99 273.47 436.01
  A 0.43 0.43 0.0 0 1 273.00 435.58
  L 273.00 422.35
  A 1.16 1.16 0.0 0 1 275.26 422.00
  L 277.78 430.03
  A 0.37 0.37 0.0 0 0 278.50 429.92
  L 278.50 422.01
  A 0.55 0.55 0.0 0 1 279.33 421.53
  C 279.66 421.72 279.98 422.23 279.98 422.64
  Q 280.01 428.93 280.00 435.16
  A 1.04 1.04 0.0 0 1 277.97 435.46
  L 275.00 425.72
  Z"
/>
<path fill="#1d1c1a" d="
  M 296.09 431.22
  C 297.09 436.92 290.09 438.13 289.88 433.43
  Q 289.57 426.45 289.81 424.07
  C 290.18 420.30 296.72 420.38 296.11 425.73
  A 0.72 0.72 0.0 0 1 295.23 426.34
  Q 294.56 426.19 294.65 425.30
  C 294.79 423.84 293.91 422.55 292.31 423.13
  A 1.61 1.61 0.0 0 0 291.26 424.64
  L 291.25 432.96
  A 1.73 1.73 0.0 0 0 292.23 434.52
  Q 293.73 435.24 294.43 433.45
  Q 294.83 432.41 294.73 431.27
  Q 294.68 430.74 295.21 430.75
  Q 295.36 430.76 295.52 430.75
  Q 296.00 430.75 296.09 431.22
  Z"
/>
<path fill="#1d1c1a" d="
  M 310.50 432.99
  L 308.04 433.02
  A 0.57 0.57 0.0 0 0 307.50 433.41
  L 306.81 435.53
  A 0.66 0.66 0.0 0 1 305.54 435.20
  L 308.07 422.19
  A 0.92 0.92 0.0 0 1 309.14 421.47
  L 310.02 421.64
  Q 310.54 421.74 310.65 422.27
  L 313.18 435.36
  Q 313.30 436.00 312.65 436.00
  L 312.21 436.00
  Q 311.65 436.00 311.55 435.45
  L 311.19 433.56
  Q 311.08 432.99 310.50 432.99
  Z
  M 308.17 431.71
  L 310.13 431.80
  A 0.23 0.23 0.0 0 0 310.37 431.58
  L 310.37 431.43
  A 6.80 1.17 -87.4 0 0 309.51 424.59
  L 309.43 424.58
  A 6.80 1.17 -87.4 0 0 307.96 431.32
  L 307.95 431.47
  A 0.23 0.23 0.0 0 0 308.17 431.71
  Z"
/>
<path fill="#1d1c1a" d="
  M 291.20 438.62
  A 0.37 0.36 -74.7 0 1 291.00 438.26
  Q 291.03 437.85 291.66 437.80
  A 0.70 0.68 56.9 0 1 292.02 437.88
  Q 292.78 438.29 293.60 437.48
  Q 294.01 437.07 294.54 437.32
  L 294.84 437.46
  Q 295.31 437.67 294.96 438.05
  Q 293.40 439.74 291.20 438.62
  Z"
/>
</svg>
