<?xml version="1.0" encoding="UTF-8" standalone="no"?>
<!DOCTYPE svg PUBLIC "-//W3C//DTD SVG 1.1//EN" "http://www.w3.org/Graphics/SVG/1.1/DTD/svg11.dtd">
<svg xmlns="http://www.w3.org/2000/svg" version="1.1" viewBox="0.00 0.00 500.00 500.00">
<g stroke-width="2.00" fill="none" stroke-linecap="butt">
<path stroke="#8e5f0d" vector-effect="non-scaling-stroke" d="
  M 401.01 302.44
  Q 372.77 306.88 343.26 308.83"
/>
<path stroke="#8e5f0d" vector-effect="non-scaling-stroke" d="
  M 164.22 309.72
  L 110.89 304.39"
/>
</g>
<path fill="#ffa100" d="
  M 401.01 302.44
  Q 372.77 306.88 343.26 308.83
  C 297.55 312.20 261.94 312.06 211.50 311.61
  C 196.37 311.47 180.34 309.97 164.22 309.72
  L 110.89 304.39
  Q 106.49 303.06 102.74 302.53
  Q 83.98 299.85 57.67 293.89
  Q 55.07 293.30 53.61 292.07
  A 1.31 1.29 20.7 0 1 53.16 291.09
  C 53.33 273.78 57.28 250.67 75.86 243.69
  Q 76.35 243.51 76.51 243.01
  Q 76.94 241.70 76.95 240.32
  C 77.38 174.51 113.52 121.04 174.43 96.65
  Q 176.54 95.81 178.42 95.83
  A 1.01 1.00 76.6 0 1 179.32 96.39
  L 207.05 152.64
  A 0.68 0.68 0.0 0 0 208.34 152.34
  C 208.59 128.21 208.58 104.14 208.49 80.00
  C 208.44 65.72 212.74 56.15 228.30 55.89
  Q 248.10 55.55 267.90 55.87
  C 275.93 56.00 282.26 59.38 285.21 66.89
  Q 286.65 70.56 286.73 79.43
  C 286.91 99.03 286.89 118.41 286.75 138.35
  C 286.73 141.60 286.03 147.73 286.85 151.99
  Q 287.36 154.66 288.63 152.25
  Q 303.22 124.57 317.55 97.69
  C 318.63 95.66 319.66 95.27 321.82 96.11
  C 384.40 120.35 420.75 175.58 420.69 242.39
  A 1.25 1.24 -79.9 0 0 421.50 243.56
  C 439.24 250.25 446.20 273.20 445.83 290.66
  A 2.77 2.76 -5.5 0 1 443.64 293.31
  L 401.01 302.44
  Z"
/>
<path fill="#1d1c1a" d="
  M 401.01 302.44
  L 414.27 313.59
  Q 416.92 315.82 415.53 319.01
  Q 409.93 331.85 404.45 345.21
  Q 402.76 349.32 398.00 348.48
  Q 375.88 344.55 366.00 343.52
  Q 364.01 343.31 362.21 345.48
  Q 357.97 350.61 353.89 355.88
  C 352.23 358.02 352.14 360.01 352.99 362.72
  Q 357.74 377.86 362.53 392.99
  Q 363.58 396.30 360.91 398.12
  Q 349.64 405.81 338.32 413.34
  Q 334.43 415.92 331.49 413.27
  Q 316.59 399.82 307.92 392.34
  C 304.31 389.22 294.47 393.76 290.21 395.01
  C 284.31 396.73 284.05 398.58 282.60 403.87
  Q 278.63 418.41 274.82 433.02
  Q 274.37 434.73 271.42 434.97
  Q 258.60 435.99 243.75 435.69
  C 240.05 435.61 239.12 433.71 238.24 430.29
  Q 234.46 415.56 230.29 400.95
  Q 229.56 398.38 227.04 397.53
  Q 217.39 394.30 209.44 392.56
  C 207.07 392.04 205.49 392.95 203.65 394.63
  Q 186.94 409.95 180.45 415.70
  Q 177.84 418.02 174.75 416.06
  Q 163.17 408.73 152.08 401.34
  A 4.52 4.51 -64.3 0 1 150.28 396.19
  Q 155.28 380.65 160.06 364.76
  Q 160.83 362.20 158.16 359.08
  Q 149.50 348.95 146.96 346.29
  C 145.65 344.92 143.60 344.69 141.62 345.00
  Q 123.02 347.87 112.00 350.01
  C 106.26 351.13 105.97 348.12 103.96 343.80
  Q 99.07 333.33 94.51 322.71
  Q 93.06 319.32 95.81 317.04
  Q 103.17 310.94 110.89 304.39
  L 164.22 309.72
  Q 184.13 349.44 224.25 362.01
  C 271.97 376.96 321.60 354.07 343.73 309.72
  A 0.57 0.57 0.0 0 0 343.51 308.98
  L 343.26 308.83
  Q 372.77 306.88 401.01 302.44
  Z"
/>
</svg>
